<svg width="152" height="30" viewBox="0 0 152 30" fill="none" xmlns="http://www.w3.org/2000/svg">
<path d="M22.6151 15.0173L29.7616 7.87074C29.8777 7.7548 29.943 7.59724 29.943 7.43321C29.943 7.26917 29.8777 7.11161 29.7616 6.99568L23.0526 0.28665C22.9367 0.17057 22.7791 0.105296 22.6151 0.105296C22.4511 0.105296 22.2935 0.17057 22.1776 0.28665L15.031 7.43321L15.0153 7.41753L7.86877 0.271686C7.75283 0.155605 7.59528 0.090332 7.43124 0.090332C7.2672 0.090332 7.10965 0.155605 6.99371 0.271686L0.284686 6.98071C0.168606 7.09665 0.103333 7.2542 0.103333 7.41824C0.103333 7.58228 0.168606 7.73983 0.284686 7.85577L7.44621 15.0173L0.284686 22.1788C0.168606 22.2948 0.103333 22.4523 0.103333 22.6163C0.103333 22.7804 0.168606 22.9379 0.284686 23.0539L6.99371 29.7615C7.10965 29.8776 7.2672 29.9428 7.43124 29.9428C7.59528 29.9428 7.75283 29.8776 7.86877 29.7615L12.9239 24.7064C12.9239 24.7064 13.0871 21.6052 9.44573 17.0175L15.0296 22.6007L22.1776 29.7479C22.2935 29.864 22.4511 29.9293 22.6151 29.9293C22.7791 29.9293 22.9367 29.864 23.0526 29.7479L29.7616 23.0389C29.8777 22.923 29.943 22.7654 29.943 22.6014C29.943 22.4373 29.8777 22.2798 29.7616 22.1638L22.6151 15.0173Z" fill="white"/>
<path d="M46.743 8.3H53.421C55.017 8.3 56.424 8.608 57.642 9.224C58.874 9.826 59.826 10.68 60.498 11.786C61.184 12.892 61.527 14.18 61.527 15.65C61.527 17.12 61.184 18.408 60.498 19.514C59.826 20.62 58.874 21.481 57.642 22.097C56.424 22.699 55.017 23 53.421 23H46.743V8.3ZM53.253 20.207C54.723 20.207 55.892 19.801 56.76 18.989C57.642 18.163 58.083 17.05 58.083 15.65C58.083 14.25 57.642 13.144 56.76 12.332C55.892 11.506 54.723 11.093 53.253 11.093H50.145V20.207H53.253ZM70.4241 23.252C68.8981 23.252 67.5191 22.923 66.2871 22.265C65.0691 21.607 64.1101 20.704 63.4101 19.556C62.7241 18.394 62.3811 17.092 62.3811 15.65C62.3811 14.208 62.7241 12.913 63.4101 11.765C64.1101 10.603 65.0691 9.693 66.2871 9.035C67.5191 8.377 68.8981 8.048 70.4241 8.048C71.9501 8.048 73.3221 8.377 74.5401 9.035C75.7581 9.693 76.7171 10.603 77.4171 11.765C78.1171 12.913 78.4671 14.208 78.4671 15.65C78.4671 17.092 78.1171 18.394 77.4171 19.556C76.7171 20.704 75.7581 21.607 74.5401 22.265C73.3221 22.923 71.9501 23.252 70.4241 23.252ZM70.4241 20.354C71.2921 20.354 72.0761 20.158 72.7761 19.766C73.4761 19.36 74.0221 18.8 74.4141 18.086C74.8201 17.372 75.0231 16.56 75.0231 15.65C75.0231 14.74 74.8201 13.928 74.4141 13.214C74.0221 12.5 73.4761 11.947 72.7761 11.555C72.0761 11.149 71.2921 10.946 70.4241 10.946C69.5561 10.946 68.7721 11.149 68.0721 11.555C67.3721 11.947 66.8191 12.5 66.4131 13.214C66.0211 13.928 65.8251 14.74 65.8251 15.65C65.8251 16.56 66.0211 17.372 66.4131 18.086C66.8191 18.8 67.3721 19.36 68.0721 19.766C68.7721 20.158 69.5561 20.354 70.4241 20.354ZM93.8772 8.3L87.5142 23H84.1542L77.8122 8.3H81.4872L85.9602 18.8L90.4962 8.3H93.8772ZM105.699 20.27V23H94.317V8.3H105.426V11.03H97.698V14.222H104.523V16.868H97.698V20.27H105.699ZM110.663 11.072H105.959V8.3H118.769V11.072H114.065V23H110.663V11.072ZM128.755 19.85H121.93L120.628 23H117.142L123.694 8.3H127.054L133.627 23H130.057L128.755 19.85ZM127.684 17.267L125.353 11.639L123.022 17.267H127.684ZM134.365 8.3H137.767V23H134.365V8.3ZM140.468 8.3H143.87V20.228H151.241V23H140.468V8.3Z" fill="white"/>
</svg>
