<svg width="50" height="50" viewBox="0 0 50 50" fill="none" xmlns="http://www.w3.org/2000/svg">
<path d="M37.3247 24.6478L36.9715 25.0012L37.3247 25.3546L49.286 37.3244L49.2862 37.3246C49.3866 37.4249 49.4432 37.5616 49.4432 37.7038C49.4432 37.846 49.3866 37.9827 49.2862 38.083L49.286 38.0832L38.057 49.3201L38.0568 49.3204C37.9565 49.4208 37.8202 49.4773 37.6784 49.4773C37.5365 49.4773 37.4002 49.4208 37.2999 49.3204L37.2997 49.3201L25.336 37.3492L15.9902 27.9979L15.2448 28.6621C18.2549 32.4571 19.6802 35.6214 20.3548 37.8186C20.6922 38.9179 20.8424 39.7771 20.9087 40.3548C20.9418 40.6436 20.954 40.8622 20.958 41.0054C20.9582 41.011 20.9583 41.0165 20.9585 41.022L12.6435 49.3428L12.6433 49.343C12.543 49.4435 12.4067 49.5 12.2649 49.5C12.1231 49.5 11.9867 49.4435 11.8865 49.343L11.8862 49.3428L0.657176 38.1082L0.656998 38.108C0.556629 38.0077 0.5 37.8711 0.5 37.7289C0.5 37.5866 0.556629 37.45 0.656998 37.3497L0.657214 37.3495L12.6436 25.3546L12.9968 25.0012L12.6436 24.6478L0.657214 12.6529L0.656997 12.6527C0.55663 12.5524 0.5 12.4158 0.5 12.2735C0.5 12.1313 0.556629 11.9947 0.656997 11.8944L0.657214 11.8941L11.8862 0.657179L11.8865 0.656962C11.9867 0.556534 12.1231 0.5 12.2649 0.5C12.4067 0.5 12.543 0.556535 12.6433 0.656961L12.6435 0.657196L24.6048 12.6258L24.6048 12.6258L24.631 12.652L24.9847 13.006L25.3384 12.652L37.2997 0.682242L37.2999 0.682027C37.4002 0.581598 37.5365 0.525064 37.6784 0.525064C37.8202 0.525064 37.9565 0.581598 38.0568 0.682027L38.057 0.682242L49.286 11.9192L49.2862 11.9194C49.3866 12.0197 49.4432 12.1564 49.4432 12.2986C49.4432 12.4408 49.3866 12.5775 49.2862 12.6778L49.286 12.678L37.3247 24.6478Z" stroke="white"/>
<path d="M37.3247 24.6478L36.9715 25.0012L37.3247 25.3546L49.286 37.3244L49.2862 37.3246C49.3866 37.4249 49.4432 37.5616 49.4432 37.7038C49.4432 37.846 49.3866 37.9827 49.2862 38.083L49.286 38.0832L38.057 49.3201L38.0568 49.3204C37.9565 49.4208 37.8202 49.4773 37.6784 49.4773C37.5365 49.4773 37.4002 49.4208 37.2999 49.3204L37.2997 49.3201L25.336 37.3492L15.9902 27.9979L15.2448 28.6621C18.2549 32.4571 19.6802 35.6214 20.3548 37.8186C20.6922 38.9179 20.8424 39.7771 20.9087 40.3548C20.9418 40.6436 20.954 40.8622 20.958 41.0054C20.9582 41.011 20.9583 41.0165 20.9585 41.022L12.6435 49.3428L12.6433 49.343C12.543 49.4435 12.4067 49.5 12.2649 49.5C12.1231 49.5 11.9867 49.4435 11.8865 49.343L11.8862 49.3428L0.657176 38.1082L0.656998 38.108C0.556629 38.0077 0.5 37.8711 0.5 37.7289C0.5 37.5866 0.556629 37.45 0.656998 37.3497L0.657214 37.3495L12.6436 25.3546L12.9968 25.0012L12.6436 24.6478L0.657214 12.6529L0.656997 12.6527C0.55663 12.5524 0.5 12.4158 0.5 12.2735C0.5 12.1313 0.556629 11.9947 0.656997 11.8944L0.657214 11.8941L11.8862 0.657179L11.8865 0.656962C11.9867 0.556534 12.1231 0.5 12.2649 0.5C12.4067 0.5 12.543 0.556535 12.6433 0.656961L12.6435 0.657196L24.6048 12.6258L24.6048 12.6258L24.631 12.652L24.9847 13.006L25.3384 12.652L37.2997 0.682242L37.2999 0.682027C37.4002 0.581598 37.5365 0.525064 37.6784 0.525064C37.8202 0.525064 37.9565 0.581598 38.0568 0.682027L38.057 0.682242L49.286 11.9192L49.2862 11.9194C49.3866 12.0197 49.4432 12.1564 49.4432 12.2986C49.4432 12.4408 49.3866 12.5775 49.2862 12.6778L49.286 12.678L37.3247 24.6478Z" stroke="white"/>
</svg>
